<svg fill="none" viewBox="0 0 52 52" xmlns="http://www.w3.org/2000/svg" xmlns:xlink="http://www.w3.org/1999/xlink"><filter id="a" color-interpolation-filters="sRGB" filterUnits="userSpaceOnUse" height="45.8" width="45.8" x="3.1" y="3.1"><feFlood flood-opacity="0" result="BackgroundImageFix"/><feBlend in="SourceGraphic" in2="BackgroundImageFix" result="shape"/><feGaussianBlur result="effect1_foregroundBlur_174_54016" stdDeviation="3"/></filter><filter id="b" color-interpolation-filters="sRGB" filterUnits="userSpaceOnUse" height="45.8" width="45.8" x="3.1" y="3.1"><feFlood flood-opacity="0" result="BackgroundImageFix"/><feBlend in="SourceGraphic" in2="BackgroundImageFix" result="shape"/><feGaussianBlur result="effect1_foregroundBlur_174_54016" stdDeviation="3"/></filter><filter id="c" color-interpolation-filters="sRGB" filterUnits="userSpaceOnUse" height="27.259" width="27.259" x="12.37" y="12.37"><feFlood flood-opacity="0" result="BackgroundImageFix"/><feBlend in="SourceGraphic" in2="BackgroundImageFix" result="shape"/><feGaussianBlur result="effect1_foregroundBlur_174_54016" stdDeviation="2"/></filter><filter id="d" color-interpolation-filters="sRGB" filterUnits="userSpaceOnUse" height="8" width="8" x="22" y="22"><feFlood flood-opacity="0" result="BackgroundImageFix"/><feBlend in="SourceGraphic" in2="BackgroundImageFix" result="shape"/><feGaussianBlur result="effect1_foregroundBlur_174_54016" stdDeviation="1"/></filter><g filter="url(#a)"><path d="m26 9.1.647 15.339 11.303-10.39-10.389 11.304 15.339.647-15.339.647 10.39 11.303-11.304-10.389-.647 15.339-.647-15.339-11.303 10.39 10.389-11.304-15.339-.647 15.339-.647-10.39-11.303 11.304 10.389z" fill="#fd94ff"/></g><g filter="url(#b)"><path d="m26 9.1 1.195 15.705 15.705 1.195-15.705 1.195-1.195 15.705-1.195-15.705-15.705-1.195 15.705-1.195z" fill="#fd94ff"/></g><g filter="url(#c)"><path d="m26 16.37.68 8.95 8.95.68-8.95.68-.68 8.95-.68-8.95-8.95-.68 8.95-.68z" fill="#fd94ff" fill-opacity=".5"/></g><g filter="url(#d)"><circle cx="26" cy="26" fill="#fff" r="2"/></g></svg>